<svg id="Camada_1" data-name="Camada 1" xmlns="http://www.w3.org/2000/svg" viewBox="0 0 877.11 184.15"><defs><style>.cls-1{fill:#fff;}.cls-2{fill:#009fe3;}</style></defs><path class="cls-1" d="M316.56,570.18V487.61h27.68v23.12l-5.48-6.54a31,31,0,0,1,12.32-13.38,34.66,34.66,0,0,1,17.64-4.56,34,34,0,0,1,19.61,5.7q8.37,5.7,11.25,17.87l-9.42-2.13A35.56,35.56,0,0,1,403.46,492a36.72,36.72,0,0,1,20.45-5.77A36.19,36.19,0,0,1,441,490.2a28.29,28.29,0,0,1,11.86,12q4.33,8.07,4.34,20.83v47.14h-28.9V527.76q0-8.82-3.34-12.85a11.24,11.24,0,0,0-9.12-4,14.25,14.25,0,0,0-7.53,2,13.1,13.1,0,0,0-5.1,6,26,26,0,0,0-1.82,10.57v40.75H372.52V527.76q0-8.82-3.27-12.85a11.2,11.2,0,0,0-9.2-4,14.34,14.34,0,0,0-7.45,2,13.38,13.38,0,0,0-5.25,6,24.93,24.93,0,0,0-1.9,10.57v40.75Z" transform="translate(-63.5 -447.92)"/><path class="cls-1" d="M471.21,570.18V553.3l46.22-53.52,4.87,9.43h-50v-21.6h73.44V504.8L499.49,558l-5-9.43h52.76v21.59Z" transform="translate(-63.5 -447.92)"/><path class="cls-2" d="M572.17,571.55a17.16,17.16,0,0,1-12.31-4.79q-5-4.78-5-12.54a15.86,15.86,0,0,1,5-12.24,18.66,18.66,0,0,1,24.63,0,15.89,15.89,0,0,1,5,12.24,16.56,16.56,0,0,1-5,12.54A17.18,17.18,0,0,1,572.17,571.55Z" transform="translate(-63.5 -447.92)"/><path class="cls-2" d="M642,571.55q-13.85,0-24.48-5.47A42,42,0,0,1,600.76,551a42.88,42.88,0,0,1,0-44,42.72,42.72,0,0,1,16.73-15.13A52.15,52.15,0,0,1,642,486.25q14,0,24.18,6a33.3,33.3,0,0,1,14.44,16.65l-22.35,11.56a20.36,20.36,0,0,0-7.15-8.44,17.2,17.2,0,0,0-9.27-2.66,18,18,0,0,0-9.05,2.28,17,17,0,0,0-6.46,6.54,24.77,24.77,0,0,0,0,21.44,16.74,16.74,0,0,0,6.46,6.69,18,18,0,0,0,9.05,2.28,17.2,17.2,0,0,0,9.27-2.66,20.3,20.3,0,0,0,7.15-8.44l22.35,11.4a33.22,33.22,0,0,1-14.44,16.65Q656,571.55,642,571.55Z" transform="translate(-63.5 -447.92)"/><path class="cls-2" d="M731.38,571.55a51.21,51.21,0,0,1-24-5.47A41.71,41.71,0,0,1,690.86,551a43.45,43.45,0,0,1,0-44.1,41.71,41.71,0,0,1,16.49-15.13,55.67,55.67,0,0,1,48.13,0,41.63,41.63,0,0,1,16.58,15.13,43.52,43.52,0,0,1,0,44.1,41.63,41.63,0,0,1-16.58,15.13A51.64,51.64,0,0,1,731.38,571.55Zm0-23a16.91,16.91,0,0,0,8.74-2.28,16.56,16.56,0,0,0,6.24-6.77,22.77,22.77,0,0,0,2.35-10.72,21.75,21.75,0,0,0-2.35-10.64,17,17,0,0,0-30,0A21.75,21.75,0,0,0,714,528.82a22.77,22.77,0,0,0,2.36,10.72,16.49,16.49,0,0,0,6.24,6.77A16.88,16.88,0,0,0,731.38,548.59Z" transform="translate(-63.5 -447.92)"/><path class="cls-2" d="M791.29,570.18V487.61H819v24.18L814.71,505a27.79,27.79,0,0,1,11.93-14q8.13-4.71,19.85-4.71V512.4c-1.32-.2-2.49-.33-3.5-.38s-2-.08-3-.08q-8.82,0-14.3,4.79t-5.47,15.59v37.86Z" transform="translate(-63.5 -447.92)"/><path class="cls-2" d="M899.71,571.55q-14.76,0-25.63-5.55a41.61,41.61,0,0,1-16.87-15.21,40.36,40.36,0,0,1-6-21.81,41.85,41.85,0,0,1,5.85-22.13,41.09,41.09,0,0,1,16.12-15.13,48.8,48.8,0,0,1,23.34-5.47,47.84,47.84,0,0,1,22.13,5.09,40.21,40.21,0,0,1,16,14.6q6,9.49,6,23.19c0,1-.05,2.18-.15,3.49s-.21,2.54-.31,3.65H874.92v-15.2H924.8l-10.95,4.26a19.26,19.26,0,0,0-2.06-9.66,16.09,16.09,0,0,0-6-6.46,17.14,17.14,0,0,0-9-2.28,18.27,18.27,0,0,0-9.28,2.28,14.72,14.72,0,0,0-6,6.46,22,22,0,0,0-2.06,9.81v4.41A20.91,20.91,0,0,0,882,540.38a16.66,16.66,0,0,0,7.22,6.77,25,25,0,0,0,11.26,2.35A27.62,27.62,0,0,0,911,547.75a31.8,31.8,0,0,0,8.51-5.39l15.06,16a37.92,37.92,0,0,1-14.45,9.81A55.36,55.36,0,0,1,899.71,571.55Z" transform="translate(-63.5 -447.92)"/><path class="cls-2" d="M152.77,632.06c-6,0-11.9,0-17.86,0a1.7,1.7,0,0,1-1.71-1q-7.87-13.74-15.8-27.43a1.27,1.27,0,0,0-1.26-.75c-10.86,0-21.72,0-32.58,0A1.57,1.57,0,0,1,82,602q-9-15.64-18-31.25a1.47,1.47,0,0,1,0-1.72q8-13.77,16-27.57a1.62,1.62,0,0,0,0-1.9q-8.07-13.9-16.12-27.83a1.5,1.5,0,0,1,0-1.73q9.09-15.65,18.1-31.34a1.49,1.49,0,0,1,1.55-.78c10.56,0,21.12,0,31.68,0a1.82,1.82,0,0,0,1.81-1c5.21-9.1,10.47-18.16,15.69-27.26a1.88,1.88,0,0,1,1.87-1.11q17.81.06,35.61,0a1.86,1.86,0,0,1,1.89,1.06c5.19,9.07,10.44,18.11,15.64,27.17a1.78,1.78,0,0,0,1.81,1.05q13.62,0,27.24,0a1.64,1.64,0,0,0,1.66-.92c5.37-9.36,10.79-18.69,16.16-28.05a1.62,1.62,0,0,1,1.65-.93q18.06,0,36.12,0a1.32,1.32,0,0,1,1.32.79q9.09,15.77,18.21,31.51a1.21,1.21,0,0,1-.11,1.44q-7.82,13.53-15.65,27a2.06,2.06,0,0,0,0,2.43q8.14,14,16.21,28a1.19,1.19,0,0,1,0,1.36c-5.37,9.24-10.69,18.51-16.07,27.74a1.51,1.51,0,0,0,0,1.8q8,13.86,16.06,27.75a1.49,1.49,0,0,1,0,1.72q-9.06,15.6-18,31.25a1.48,1.48,0,0,1-1.49.86q-18.1,0-36.22,0a1.41,1.41,0,0,1-1.39-.86q-7.92-13.77-15.85-27.52a1.52,1.52,0,0,0-1.51-.86q-13.86,0-27.74,0a1.52,1.52,0,0,0-1.52.85q-8.08,14.07-16.2,28.13a1.33,1.33,0,0,1-1.38.69H152.77Zm-51.31-36.21c4.68,0,9.35,0,14,0a1.41,1.41,0,0,0,1.43-.8q7-12.15,14-24.26a1.47,1.47,0,0,0,0-1.72q-7-12.06-14-24.17a1.52,1.52,0,0,0-1.51-.87q-14,0-28,0a1.25,1.25,0,0,0-1.28.7q-7,12.19-14.07,24.35a1.46,1.46,0,0,0,0,1.71q7,12.08,14,24.17a1.48,1.48,0,0,0,1.49.88C92.19,595.83,96.83,595.85,101.46,595.85Zm51-29.65c4.67,0,9.34,0,14,0a1.45,1.45,0,0,0,1.43-.83q6.93-12.06,13.92-24.08a1.71,1.71,0,0,0,0-2q-7-12.06-14-24.17a1.42,1.42,0,0,0-1.47-.75q-13.77,0-27.53,0a2,2,0,0,0-2,1.19q-6.88,12-13.85,24a1.23,1.23,0,0,0,0,1.45q7,12.12,14,24.26a1.52,1.52,0,0,0,1.55.93C143.15,566.18,147.79,566.2,152.43,566.2Zm-51.12-29.43c4.57,0,9.15,0,13.72,0a1.92,1.92,0,0,0,2-1.15c4.1-7.18,8.25-14.32,12.38-21.49C130,513.08,131,512,131,510.9s-1-2.11-1.64-3.15q-6.25-10.83-12.51-21.65c-.3-.51-.45-1.13-1.33-1.13q-14.17.06-28.34,0a1.21,1.21,0,0,0-1.2.7Q78.94,498,71.84,510.2a1.16,1.16,0,0,0,0,1.36Q78.92,523.77,86,536a1.31,1.31,0,0,0,1.34.78C92,536.75,96.64,536.77,101.31,536.77Zm152.76-30c4.64,0,9.28,0,13.92,0a1.49,1.49,0,0,0,1.51-.84q6.94-12.1,14-24.18a1.46,1.46,0,0,0,0-1.71q-7.06-12.16-14.08-24.35a1.18,1.18,0,0,0-1.18-.69c-9.45,0-18.9,0-28.35,0a1.56,1.56,0,0,0-1.11.6q-7.17,12.33-14.27,24.7a1.27,1.27,0,0,0,0,1.06c4.71,8.22,9.47,16.42,14.19,24.64a1.3,1.3,0,0,0,1.36.73C244.72,506.73,249.4,506.74,254.07,506.74Zm.43,7.21c-4.64,0-9.28,0-13.92,0a1.47,1.47,0,0,0-1.5.85q-7,12.15-14,24.27a1.31,1.31,0,0,0,0,1.54q7,12.07,14,24.19a1.64,1.64,0,0,0,1.66,1q13.81,0,27.64,0a1.75,1.75,0,0,0,1.74-1Q277,552.68,284,540.65a1.41,1.41,0,0,0,0-1.64q-7-12.12-14-24.27a1.39,1.39,0,0,0-1.42-.8C263.85,514,259.17,514,254.5,514Zm-51.19,22.6h14.12a1.26,1.26,0,0,0,1.3-.68c4.7-8.18,9.43-16.35,14.12-24.54a1.49,1.49,0,0,0,0-1.24c-4.68-8.16-9.4-16.3-14.08-24.45a1.35,1.35,0,0,0-1.33-.8q-14.07,0-28.13,0a1.35,1.35,0,0,0-1.35.76q-7,12.15-14,24.26a1.47,1.47,0,0,0,0,1.72q7,12.1,14,24.25a1.32,1.32,0,0,0,1.37.72Zm-50.47,36.71c-4.64,0-9.28,0-13.92,0a1.48,1.48,0,0,0-1.51.84q-7,12.2-14.06,24.35a1.23,1.23,0,0,0,0,1.45q7.06,12.17,14.07,24.35a1.32,1.32,0,0,0,1.33.79q14,0,28,0a1.49,1.49,0,0,0,1.5-.86q7-12.15,14-24.26a1.26,1.26,0,0,0,0-1.46q-7.08-12.2-14.11-24.44a1.34,1.34,0,0,0-1.35-.76C162.18,573.27,157.51,573.26,152.84,573.26Zm101.82,51.29c4.71,0,9.41,0,14.12,0a1.27,1.27,0,0,0,1.27-.73q7-12.24,14.12-24.43a1.32,1.32,0,0,0-.05-1.54q-7-12.07-14-24.18a1.55,1.55,0,0,0-1.57-.9q-13.9,0-27.83,0a1.49,1.49,0,0,0-1.49.87q-7,12.15-14,24.26a1.4,1.4,0,0,0,0,1.64q7,12.06,13.95,24.17a1.49,1.49,0,0,0,1.52.84C245.39,624.54,250,624.55,254.66,624.55ZM152.27,507.36c4.67,0,9.35,0,14,0a1.42,1.42,0,0,0,1.42-.81q7-12.15,14-24.26a1.43,1.43,0,0,0,0-1.65q-7.07-12.15-14.06-24.35a1.26,1.26,0,0,0-1.28-.7q-14.07,0-28.13,0a1.41,1.41,0,0,0-1.41.85q-6.93,12.06-13.91,24.08a1.56,1.56,0,0,0,0,1.81q7,12.11,14,24.26a1.32,1.32,0,0,0,1.34.77C142.93,507.35,147.6,507.36,152.27,507.36Zm51.43,36.31c-4.7,0-9.41,0-14.11,0a1.43,1.43,0,0,0-1.42.84q-7,12.15-14,24.27a1.46,1.46,0,0,0-.07,1.24c4.7,8.22,9.45,16.42,14.17,24.63a1.3,1.3,0,0,0,1.27.74q14,0,28,0a1.34,1.34,0,0,0,1.38-.72q7-12.27,14.15-24.52a1.16,1.16,0,0,0,0-1.36q-7.06-12.15-14.06-24.34a1.32,1.32,0,0,0-1.35-.76C213,543.68,208.37,543.67,203.7,543.67Z" transform="translate(-63.5 -447.92)"/></svg>